<svg width="630" height="630" viewBox="0 0 630 630" fill="none" xmlns="http://www.w3.org/2000/svg">
<path d="M427.709 133.161L399.016 161.854C445.968 208.805 445.968 284.449 399.016 330.531C352.065 377.482 276.421 377.482 230.34 330.531C183.388 283.58 183.388 207.936 230.34 161.854L304.679 87.5143L315.113 77.0808V21L202.951 133.161C140.35 195.763 140.35 296.621 202.951 359.223C265.553 421.825 366.411 421.825 427.709 359.223C490.311 296.187 490.311 195.763 427.709 133.161Z" fill="#EE4C2C"/>
<path d="M371.628 126.206C383.153 126.206 392.495 116.863 392.495 105.338C392.495 93.8137 383.153 84.4709 371.628 84.4709C360.104 84.4709 350.761 93.8137 350.761 105.338C350.761 116.863 360.104 126.206 371.628 126.206Z" fill="#EE4C2C"/>
<path d="M130.014 491.3C130.014 490.367 130.481 489.9 131.414 489.9C133.014 489.967 134.614 490 136.214 490C137.814 490 139.381 490 140.914 490V449H132.914C132.581 449 132.214 448.833 131.814 448.5C131.414 448.167 131.214 447.8 131.214 447.4V441.2C131.214 440.8 131.414 440.433 131.814 440.1C132.214 439.767 132.581 439.6 132.914 439.6H184.514C184.914 439.6 185.247 439.767 185.514 440.1C185.847 440.367 186.014 440.733 186.014 441.2V447.5C186.014 447.9 185.847 448.267 185.514 448.6C185.247 448.867 184.914 449 184.514 449H177.614V488.5C179.414 488.367 181.181 488.233 182.914 488.1C184.647 487.9 186.347 487.667 188.014 487.4C188.347 487.333 188.714 487.4 189.114 487.6C189.514 487.733 189.747 487.967 189.814 488.3L190.714 494.6C190.847 495.133 190.747 495.533 190.414 495.8C190.147 496.067 189.847 496.233 189.514 496.3C185.514 496.9 181.181 497.433 176.514 497.9C171.847 498.3 167.014 498.633 162.014 498.9C157.014 499.1 151.914 499.233 146.714 499.3C141.514 499.367 136.414 499.333 131.414 499.2C131.014 499.2 130.681 499.067 130.414 498.8C130.147 498.467 130.014 498.1 130.014 497.7V491.3ZM220.714 476.9C220.714 477.233 220.547 477.533 220.214 477.8C219.947 478.067 219.647 478.2 219.314 478.2H205.714V525.5C205.714 526.367 205.281 526.8 204.414 526.8H195.514C194.647 526.8 194.214 526.367 194.214 525.5V433.2C194.214 432.333 194.647 431.9 195.514 431.9H204.414C205.281 431.9 205.714 432.333 205.714 433.2V468.6H219.314C219.647 468.6 219.947 468.733 220.214 469C220.547 469.2 220.714 469.467 220.714 469.8V476.9ZM152.014 489.9C157.014 489.767 161.847 489.567 166.514 489.3V449H152.014V489.9ZM303.857 525.5C303.857 526.367 303.424 526.8 302.557 526.8H293.657C292.79 526.8 292.357 526.367 292.357 525.5V433.2C292.357 432.333 292.79 431.9 293.657 431.9H302.557C303.424 431.9 303.857 432.333 303.857 433.2V525.5ZM267.757 470.8C267.757 467.733 267.457 464.833 266.857 462.1C266.257 459.3 265.39 456.867 264.257 454.8C263.124 452.733 261.724 451.1 260.057 449.9C258.457 448.7 256.59 448.1 254.457 448.1C252.324 448.1 250.424 448.7 248.757 449.9C247.157 451.1 245.79 452.733 244.657 454.8C243.524 456.867 242.657 459.3 242.057 462.1C241.457 464.833 241.157 467.733 241.157 470.8C241.157 473.8 241.457 476.7 242.057 479.5C242.657 482.233 243.524 484.667 244.657 486.8C245.79 488.867 247.157 490.533 248.757 491.8C250.424 493 252.324 493.6 254.457 493.6C256.59 493.6 258.457 493 260.057 491.8C261.724 490.533 263.124 488.867 264.257 486.8C265.39 484.667 266.257 482.233 266.857 479.5C267.457 476.7 267.757 473.8 267.757 470.8ZM254.457 503.8C250.657 503.8 247.224 503 244.157 501.4C241.09 499.8 238.49 497.567 236.357 494.7C234.29 491.767 232.69 488.267 231.557 484.2C230.424 480.133 229.857 475.667 229.857 470.8C229.857 465.8 230.424 461.267 231.557 457.2C232.69 453.133 234.29 449.7 236.357 446.9C238.49 444.033 241.09 441.833 244.157 440.3C247.224 438.7 250.657 437.9 254.457 437.9C258.324 437.9 261.757 438.7 264.757 440.3C267.824 441.833 270.39 444.033 272.457 446.9C274.59 449.7 276.224 453.133 277.357 457.2C278.49 461.267 279.057 465.8 279.057 470.8C279.057 475.8 278.49 480.333 277.357 484.4C276.224 488.467 274.59 491.933 272.457 494.8C270.39 497.667 267.824 499.9 264.757 501.5C261.757 503.033 258.324 503.8 254.457 503.8ZM394.7 483.2C394.7 483.733 394.567 484.133 394.3 484.4C394.1 484.6 393.833 484.7 393.5 484.7H368.2V501H405.9C406.233 501 406.567 501.167 406.9 501.5C407.233 501.833 407.4 502.2 407.4 502.6V509.1C407.4 509.433 407.233 509.767 406.9 510.1C406.567 510.433 406.233 510.6 405.9 510.6H318.8C318.4 510.6 318.067 510.433 317.8 510.1C317.533 509.767 317.4 509.433 317.4 509.1V502.6C317.4 501.533 317.867 501 318.8 501H356.7V484.7H337.7C335.033 484.7 333.167 484.1 332.1 482.9C331.033 481.7 330.5 479.933 330.5 477.6V444C330.5 441.467 331.067 439.767 332.2 438.9C333.333 437.967 335.167 437.5 337.7 437.5H392.6C393.533 437.5 394 437.933 394 438.8V445.5C394 446.433 393.533 446.9 392.6 446.9H343.8C342.6 446.9 342 447.467 342 448.6V456.4H391.3C391.633 456.4 391.933 456.533 392.2 456.8C392.533 457.067 392.7 457.367 392.7 457.7V464.2C392.7 464.6 392.533 464.933 392.2 465.2C391.933 465.4 391.633 465.5 391.3 465.5H342V473.6C342 474.333 342.1 474.8 342.3 475C342.567 475.2 343.067 475.3 343.8 475.3H393.1C393.633 475.3 394.033 475.367 394.3 475.5C394.567 475.633 394.7 475.967 394.7 476.5V483.2ZM420.643 505.1C420.11 505.367 419.543 505.5 418.943 505.5C418.41 505.433 417.976 505.167 417.643 504.7L414.543 499.9C414.076 499.167 413.943 498.5 414.143 497.9C414.41 497.233 414.776 496.8 415.243 496.6C418.91 494.6 422.443 492.4 425.843 490C429.243 487.6 432.376 485.033 435.243 482.3C438.11 479.567 440.61 476.733 442.743 473.8C444.943 470.8 446.676 467.733 447.943 464.6C448.343 463.667 448.576 463 448.643 462.6C448.71 462.133 447.943 461.9 446.343 461.9H420.643C420.243 461.9 419.91 461.733 419.643 461.4C419.376 461.067 419.243 460.7 419.243 460.3V453.7C419.243 453.3 419.376 452.967 419.643 452.7C419.976 452.433 420.343 452.3 420.743 452.3H454.443C457.31 452.3 459.31 452.833 460.443 453.9C461.576 454.967 462.143 456.1 462.143 457.3C462.143 458.9 461.843 460.6 461.243 462.4C460.11 465.2 458.843 467.9 457.443 470.5C456.11 473.1 454.576 475.633 452.843 478.1C454.11 479.5 455.476 480.933 456.943 482.4C458.476 483.8 460.043 485.167 461.643 486.5C463.243 487.833 464.843 489.1 466.443 490.3C468.043 491.5 469.543 492.567 470.943 493.5C471.476 493.833 471.71 494.267 471.643 494.8C471.576 495.267 471.376 495.767 471.043 496.3L467.243 501.6C466.976 502 466.576 502.233 466.043 502.3C465.51 502.367 464.91 502.167 464.243 501.7C463.043 500.967 461.643 500 460.043 498.8C458.51 497.6 456.943 496.3 455.343 494.9C453.743 493.433 452.143 491.933 450.543 490.4C449.01 488.867 447.643 487.4 446.443 486C439.576 493.4 430.976 499.767 420.643 505.1ZM492.043 525.5C492.043 526.367 491.576 526.8 490.643 526.8H481.843C481.51 526.8 481.176 526.667 480.843 526.4C480.576 526.2 480.443 525.9 480.443 525.5V433.2C480.443 432.867 480.576 432.567 480.843 432.3C481.176 432.033 481.51 431.9 481.843 431.9H490.643C491.576 431.9 492.043 432.333 492.043 433.2V525.5ZM455.943 443.9C455.943 444.3 455.776 444.667 455.443 445C455.11 445.333 454.71 445.5 454.243 445.5H428.243C427.976 445.5 427.643 445.367 427.243 445.1C426.91 444.833 426.743 444.467 426.743 444V437.9C426.743 437.433 426.91 437.067 427.243 436.8C427.643 436.533 427.976 436.4 428.243 436.4H454.243C454.643 436.4 455.01 436.567 455.343 436.9C455.743 437.233 455.943 437.6 455.943 438V443.9Z" fill="black"/>
<path d="M144.961 563.95C143.394 563.95 142.094 564.383 141.061 565.25C140.028 566.117 139.511 567.167 139.511 568.4C139.511 569.667 140.028 570.75 141.061 571.65C142.094 572.55 143.394 573 144.961 573C146.561 573 147.861 572.55 148.861 571.65C149.894 570.75 150.411 569.667 150.411 568.4C150.411 567.167 149.894 566.117 148.861 565.25C147.861 564.383 146.561 563.95 144.961 563.95ZM144.961 559.5C146.461 559.5 147.878 559.733 149.211 560.2C150.544 560.667 151.694 561.3 152.661 562.1C153.661 562.9 154.444 563.85 155.011 564.95C155.578 566.017 155.861 567.167 155.861 568.4C155.861 569.667 155.578 570.85 155.011 571.95C154.444 573.017 153.661 573.95 152.661 574.75C151.694 575.55 150.544 576.183 149.211 576.65C147.878 577.117 146.444 577.35 144.911 577.35C143.411 577.35 142.011 577.117 140.711 576.65C139.411 576.183 138.261 575.55 137.261 574.75C136.294 573.95 135.528 573.017 134.961 571.95C134.394 570.85 134.111 569.667 134.111 568.4C134.111 567.167 134.394 566.017 134.961 564.95C135.528 563.85 136.294 562.9 137.261 562.1C138.261 561.3 139.411 560.667 140.711 560.2C142.044 559.733 143.461 559.5 144.961 559.5ZM158.561 556.95C158.561 557.183 158.478 557.383 158.311 557.55C158.178 557.683 158.011 557.75 157.811 557.75H131.311C131.111 557.75 130.928 557.667 130.761 557.5C130.594 557.333 130.511 557.133 130.511 556.9V553.95C130.511 553.783 130.594 553.617 130.761 553.45C130.961 553.283 131.161 553.2 131.361 553.2H157.811C158.011 553.2 158.178 553.283 158.311 553.45C158.478 553.583 158.561 553.75 158.561 553.95V556.95ZM152.111 550.25C152.111 550.45 152.028 550.633 151.861 550.8C151.728 550.967 151.528 551.05 151.261 551.05H138.211C138.078 551.05 137.911 550.983 137.711 550.85C137.544 550.717 137.461 550.533 137.461 550.3V547.35C137.461 547.083 137.544 546.883 137.711 546.75C137.911 546.617 138.078 546.55 138.211 546.55H151.261C151.494 546.55 151.694 546.633 151.861 546.8C152.028 546.967 152.111 547.167 152.111 547.4V550.25ZM169.511 591.55C169.511 591.75 169.428 591.9 169.261 592C169.094 592.1 168.928 592.15 168.761 592.15H142.361C140.861 592.15 139.844 591.883 139.311 591.35C138.778 590.817 138.511 589.9 138.511 588.6V580.85C138.511 580.683 138.594 580.517 138.761 580.35C138.928 580.183 139.094 580.1 139.261 580.1H143.511C143.744 580.1 143.928 580.183 144.061 580.35C144.228 580.517 144.311 580.683 144.311 580.85V586.55C144.311 586.883 144.378 587.1 144.511 587.2C144.644 587.3 144.878 587.35 145.211 587.35H168.761C168.928 587.35 169.094 587.417 169.261 587.55C169.428 587.683 169.511 587.833 169.511 588V591.55ZM175.061 566.4C175.061 566.567 174.978 566.717 174.811 566.85C174.678 566.95 174.511 567 174.311 567H167.561V581.4C167.561 581.833 167.344 582.05 166.911 582.05H162.461C162.028 582.05 161.811 581.833 161.811 581.4V546.1C161.811 545.667 162.028 545.45 162.461 545.45H166.911C167.344 545.45 167.561 545.667 167.561 546.1V562.2H174.311C174.511 562.2 174.678 562.267 174.811 562.4C174.978 562.533 175.061 562.683 175.061 562.85V566.4ZM216.633 549.95C216.633 550.717 216.599 551.617 216.533 552.65C216.499 553.65 216.416 554.733 216.283 555.9C216.183 557.033 216.049 558.2 215.883 559.4C215.716 560.6 215.516 561.767 215.283 562.9H222.633C222.799 562.9 222.966 563 223.133 563.2C223.299 563.367 223.383 563.533 223.383 563.7V566.95C223.383 567.117 223.299 567.283 223.133 567.45C222.966 567.617 222.799 567.7 222.633 567.7H203.333V575.15H213.083C214.449 575.15 215.333 575.383 215.733 575.85C216.166 576.317 216.383 577.283 216.383 578.75V592.2C216.383 592.367 216.299 592.517 216.133 592.65C215.999 592.817 215.849 592.9 215.683 592.9H211.333C211.133 592.9 210.949 592.817 210.783 592.65C210.649 592.517 210.583 592.367 210.583 592.2V580.7C210.583 580.367 210.516 580.15 210.383 580.05C210.249 579.95 209.999 579.9 209.633 579.9H185.033C184.866 579.9 184.699 579.85 184.533 579.75C184.366 579.617 184.283 579.467 184.283 579.3V575.75C184.283 575.55 184.366 575.4 184.533 575.3C184.699 575.2 184.866 575.15 185.033 575.15H197.583V567.7H179.083C178.883 567.7 178.716 567.617 178.583 567.45C178.449 567.283 178.383 567.117 178.383 566.95V563.7C178.383 563.167 178.616 562.9 179.083 562.9H209.983C210.283 561.267 210.533 559.583 210.733 557.85C210.933 556.083 211.033 554.2 211.033 552.2C211.033 551.733 210.916 551.45 210.683 551.35C210.449 551.217 210.099 551.15 209.633 551.15H186.333C186.166 551.15 185.999 551.083 185.833 550.95C185.666 550.817 185.583 550.667 185.583 550.5V547.05C185.583 546.85 185.666 546.7 185.833 546.6C185.999 546.5 186.166 546.45 186.333 546.45H213.333C214.399 546.45 215.216 546.733 215.783 547.3C216.349 547.833 216.633 548.717 216.633 549.95ZM289.118 567.8C289.118 568 289.034 568.167 288.868 568.3C288.734 568.433 288.584 568.5 288.418 568.5H281.618V592.25C281.618 592.683 281.401 592.9 280.968 592.9H276.518C276.084 592.9 275.868 592.683 275.868 592.25V546.1C275.868 545.667 276.084 545.45 276.518 545.45H280.968C281.401 545.45 281.618 545.667 281.618 546.1V563.7H288.418C288.584 563.7 288.734 563.767 288.868 563.9C289.034 564 289.118 564.133 289.118 564.3V567.8ZM248.168 581.85C247.534 582.35 246.951 582.333 246.418 581.8L244.068 579.6C243.601 579.133 243.651 578.617 244.218 578.05C246.384 576.083 248.234 573.9 249.768 571.5C251.301 569.1 252.534 566.533 253.468 563.8C253.868 562.6 254.201 561.417 254.468 560.25C254.768 559.05 255.001 557.85 255.168 556.65C255.334 555.417 255.451 554.15 255.518 552.85C255.584 551.517 255.601 550.117 255.568 548.65C255.568 548.45 255.634 548.283 255.768 548.15C255.934 547.983 256.101 547.9 256.268 547.9L260.718 548.05C260.884 548.05 261.034 548.133 261.168 548.3C261.301 548.433 261.368 548.6 261.368 548.8C261.368 550.833 261.301 552.733 261.168 554.5C261.034 556.233 260.818 557.917 260.518 559.55C260.851 561.117 261.368 562.683 262.068 564.25C262.768 565.817 263.584 567.333 264.518 568.8C265.451 570.233 266.451 571.567 267.518 572.8C268.618 574 269.701 575.033 270.768 575.9C271.301 576.3 271.334 576.817 270.868 577.45L268.768 580C268.601 580.233 268.368 580.367 268.068 580.4C267.801 580.433 267.501 580.333 267.168 580.1C266.368 579.467 265.518 578.683 264.618 577.75C263.718 576.817 262.851 575.817 262.018 574.75C261.218 573.65 260.468 572.533 259.768 571.4C259.068 570.233 258.501 569.117 258.068 568.05C257.468 569.45 256.784 570.817 256.018 572.15C255.251 573.483 254.434 574.75 253.568 575.95C252.701 577.117 251.801 578.217 250.868 579.25C249.968 580.25 249.068 581.117 248.168 581.85ZM337.439 572.5C337.439 572.667 337.356 572.833 337.189 573C337.023 573.167 336.856 573.25 336.689 573.25H293.139C292.939 573.25 292.773 573.167 292.639 573C292.506 572.833 292.439 572.667 292.439 572.5V569.35C292.439 569.15 292.506 568.983 292.639 568.85C292.773 568.683 292.939 568.6 293.139 568.6H303.939V561.8C302.406 561.033 301.223 560.083 300.389 558.95C299.556 557.817 299.139 556.533 299.139 555.1C299.139 553.733 299.523 552.5 300.289 551.4C301.089 550.3 302.189 549.367 303.589 548.6C304.989 547.8 306.656 547.2 308.589 546.8C310.556 546.367 312.706 546.15 315.039 546.15C317.373 546.15 319.506 546.367 321.439 546.8C323.373 547.2 325.039 547.8 326.439 548.6C327.839 549.367 328.923 550.3 329.689 551.4C330.489 552.5 330.889 553.733 330.889 555.1C330.889 556.567 330.456 557.883 329.589 559.05C328.723 560.183 327.489 561.15 325.889 561.95V568.6H336.689C336.856 568.6 337.023 568.683 337.189 568.85C337.356 569.017 337.439 569.183 337.439 569.35V572.5ZM330.839 584.55C330.839 585.817 330.473 586.967 329.739 588C329.039 589.033 328.006 589.933 326.639 590.7C325.306 591.467 323.639 592.05 321.639 592.45C319.673 592.883 317.439 593.1 314.939 593.1C312.439 593.1 310.189 592.883 308.189 592.45C306.223 592.05 304.556 591.467 303.189 590.7C301.856 589.933 300.823 589.033 300.089 588C299.389 586.967 299.039 585.817 299.039 584.55C299.039 583.317 299.389 582.183 300.089 581.15C300.823 580.083 301.856 579.183 303.189 578.45C304.556 577.683 306.223 577.1 308.189 576.7C310.189 576.267 312.439 576.05 314.939 576.05C317.439 576.05 319.673 576.267 321.639 576.7C323.639 577.1 325.306 577.683 326.639 578.45C328.006 579.183 329.039 580.083 329.739 581.15C330.473 582.183 330.839 583.317 330.839 584.55ZM315.039 550.75C313.573 550.717 312.223 550.817 310.989 551.05C309.789 551.25 308.756 551.55 307.889 551.95C307.023 552.35 306.339 552.817 305.839 553.35C305.339 553.883 305.089 554.467 305.089 555.1C305.089 555.733 305.339 556.317 305.839 556.85C306.339 557.383 307.023 557.85 307.889 558.25C308.756 558.65 309.789 558.967 310.989 559.2C312.223 559.4 313.573 559.5 315.039 559.5C316.473 559.5 317.789 559.4 318.989 559.2C320.223 558.967 321.273 558.65 322.139 558.25C323.006 557.85 323.689 557.383 324.189 556.85C324.689 556.317 324.939 555.733 324.939 555.1C324.939 554.467 324.689 553.9 324.189 553.4C323.689 552.867 323.006 552.417 322.139 552.05C321.273 551.65 320.223 551.333 318.989 551.1C317.789 550.867 316.473 550.75 315.039 550.75ZM314.939 580.4C313.273 580.4 311.806 580.517 310.539 580.75C309.273 580.983 308.206 581.3 307.339 581.7C306.506 582.1 305.856 582.55 305.389 583.05C304.956 583.55 304.739 584.067 304.739 584.6C304.739 585.133 304.956 585.65 305.389 586.15C305.856 586.65 306.506 587.1 307.339 587.5C308.206 587.9 309.273 588.217 310.539 588.45C311.806 588.683 313.273 588.8 314.939 588.8C316.573 588.8 318.023 588.683 319.289 588.45C320.589 588.217 321.656 587.9 322.489 587.5C323.356 587.1 324.006 586.65 324.439 586.15C324.906 585.65 325.139 585.133 325.139 584.6C325.139 584.067 324.906 583.55 324.439 583.05C324.006 582.55 323.356 582.1 322.489 581.7C321.656 581.3 320.589 580.983 319.289 580.75C318.023 580.517 316.573 580.4 314.939 580.4ZM315.039 564.05C314.039 564.05 313.089 564.017 312.189 563.95C311.323 563.883 310.456 563.783 309.589 563.65V568.6H320.239V563.65C319.406 563.783 318.556 563.883 317.689 563.95C316.856 564.017 315.973 564.05 315.039 564.05ZM344.961 580.85C344.694 581.017 344.411 581.083 344.111 581.05C343.844 581.017 343.627 580.867 343.461 580.6L341.511 578.05C341.277 577.75 341.227 577.467 341.361 577.2C341.527 576.933 341.711 576.733 341.911 576.6C344.011 575.3 346.011 573.8 347.911 572.1C349.811 570.4 351.527 568.617 353.061 566.75C354.594 564.85 355.894 562.933 356.961 561C358.027 559.033 358.794 557.15 359.261 555.35C359.394 554.783 359.411 554.417 359.311 554.25C359.211 554.083 358.877 554 358.311 554H345.411C345.177 554 344.994 553.933 344.861 553.8C344.761 553.633 344.711 553.45 344.711 553.25V549.9C344.711 549.7 344.777 549.533 344.911 549.4C345.077 549.267 345.261 549.2 345.461 549.2H361.761C363.061 549.2 364.077 549.45 364.811 549.95C365.544 550.45 365.911 551.1 365.911 551.9C365.911 552.333 365.877 552.783 365.811 553.25C365.744 553.683 365.661 554.083 365.561 554.45C365.094 556.25 364.477 558.067 363.711 559.9C362.944 561.7 361.994 563.5 360.861 565.3C361.494 566.167 362.227 567.083 363.061 568.05C363.894 568.983 364.744 569.9 365.611 570.8C366.477 571.667 367.344 572.483 368.211 573.25C369.077 573.983 369.861 574.6 370.561 575.1C370.794 575.267 370.944 575.483 371.011 575.75C371.111 576.017 371.061 576.283 370.861 576.55L368.711 579C368.277 579.5 367.727 579.533 367.061 579.1C366.461 578.7 365.761 578.15 364.961 577.45C364.161 576.75 363.327 575.967 362.461 575.1C361.627 574.233 360.777 573.333 359.911 572.4C359.077 571.433 358.327 570.517 357.661 569.65C354.261 573.883 350.027 577.617 344.961 580.85ZM387.161 567.95C387.161 568.117 387.077 568.267 386.911 568.4C386.777 568.533 386.627 568.6 386.461 568.6H379.661V592.25C379.661 592.683 379.444 592.9 379.011 592.9H374.561C374.127 592.9 373.911 592.683 373.911 592.25V546.1C373.911 545.667 374.127 545.45 374.561 545.45H379.011C379.444 545.45 379.661 545.667 379.661 546.1V563.8H386.461C386.627 563.8 386.777 563.867 386.911 564C387.077 564.1 387.161 564.233 387.161 564.4V567.95ZM444.746 567.05C444.746 568.317 444.463 569.217 443.896 569.75C443.363 570.25 442.463 570.5 441.196 570.5H431.896V580H450.746C450.913 580 451.079 580.083 451.246 580.25C451.413 580.417 451.496 580.6 451.496 580.8V584.05C451.496 584.217 451.413 584.383 451.246 584.55C451.079 584.717 450.913 584.8 450.746 584.8H407.196C406.996 584.8 406.829 584.717 406.696 584.55C406.563 584.383 406.496 584.217 406.496 584.05V580.8C406.496 580.267 406.729 580 407.196 580H426.146V570.5H416.896C415.396 570.5 414.379 570.25 413.846 569.75C413.346 569.217 413.096 568.3 413.096 567V552.1C413.096 550.833 413.363 549.95 413.896 549.45C414.463 548.917 415.379 548.65 416.646 548.65H440.946C442.446 548.65 443.446 548.9 443.946 549.4C444.479 549.9 444.746 550.817 444.746 552.15V567.05ZM438.996 554.1C438.996 553.833 438.946 553.667 438.846 553.6C438.779 553.5 438.613 553.45 438.346 553.45H419.546C419.279 553.45 419.096 553.483 418.996 553.55C418.929 553.617 418.896 553.783 418.896 554.05V565.05C418.896 565.383 418.929 565.583 418.996 565.65C419.096 565.717 419.279 565.75 419.546 565.75H438.346C438.613 565.75 438.779 565.717 438.846 565.65C438.946 565.583 438.996 565.383 438.996 565.05V554.1ZM495.317 571.55C495.317 571.983 495.101 572.2 494.667 572.2H490.217C489.784 572.2 489.567 571.967 489.567 571.5V546.1C489.567 545.667 489.784 545.45 490.217 545.45H494.667C495.101 545.45 495.317 545.667 495.317 546.1V571.55ZM495.317 588.65C495.317 589.917 495.034 590.817 494.467 591.35C493.934 591.883 493.034 592.15 491.767 592.15H470.517C468.984 592.15 467.867 591.883 467.167 591.35C466.501 590.817 466.167 589.9 466.167 588.6V578.3C466.167 577.033 466.434 576.117 466.967 575.55C467.534 574.983 468.451 574.7 469.717 574.7H491.517C493.017 574.7 494.017 574.983 494.517 575.55C495.051 576.083 495.317 577.017 495.317 578.35V588.65ZM489.617 579.95C489.617 579.683 489.567 579.517 489.467 579.45C489.401 579.35 489.234 579.3 488.967 579.3H472.517C472.251 579.3 472.067 579.333 471.967 579.4C471.901 579.467 471.867 579.633 471.867 579.9V586.9C471.867 587.2 471.901 587.383 471.967 587.45C472.067 587.517 472.251 587.55 472.517 587.55H488.967C489.234 587.55 489.401 587.517 489.467 587.45C489.567 587.383 489.617 587.2 489.617 586.9V579.95ZM482.417 558.7C482.417 560.367 482.117 561.917 481.517 563.35C480.951 564.75 480.117 565.967 479.017 567C477.951 568.033 476.667 568.833 475.167 569.4C473.701 569.967 472.067 570.25 470.267 570.25C468.501 570.25 466.884 569.967 465.417 569.4C463.951 568.833 462.684 568.033 461.617 567C460.584 565.967 459.784 564.75 459.217 563.35C458.651 561.917 458.367 560.367 458.367 558.7C458.367 557.1 458.651 555.6 459.217 554.2C459.784 552.8 460.584 551.583 461.617 550.55C462.684 549.483 463.951 548.65 465.417 548.05C466.884 547.45 468.501 547.15 470.267 547.15C472.067 547.15 473.701 547.45 475.167 548.05C476.667 548.65 477.951 549.483 479.017 550.55C480.117 551.583 480.951 552.8 481.517 554.2C482.117 555.6 482.417 557.1 482.417 558.7ZM476.717 558.8C476.717 556.833 476.134 555.267 474.967 554.1C473.801 552.9 472.234 552.3 470.267 552.3C468.367 552.3 466.834 552.9 465.667 554.1C464.501 555.267 463.917 556.833 463.917 558.8C463.917 560.8 464.501 562.4 465.667 563.6C466.834 564.8 468.367 565.4 470.267 565.4C472.234 565.4 473.801 564.8 474.967 563.6C476.134 562.4 476.717 560.8 476.717 558.8Z" fill="black"/>
</svg>
