<svg width="790" height="89" viewBox="0 0 790 89" fill="none" xmlns="http://www.w3.org/2000/svg">
<path d="M62.5 25.8L55.9 32.4C66.7 43.2 66.7 60.6 55.9 71.2C45.1 82 27.7 82 17.1 71.2C6.3 60.4 6.3 43 17.1 32.4L34.2 15.3L36.6 12.9V0L10.8 25.8C-3.6 40.2 -3.6 63.4 10.8 77.8C25.2 92.2 48.4 92.2 62.5 77.8C76.9 63.3 76.9 40.2 62.5 25.8Z" fill="#EE4C2C"/>
<path d="M49.6 24.2C52.251 24.2 54.4 22.051 54.4 19.4C54.4 16.7491 52.251 14.6 49.6 14.6C46.949 14.6 44.8 16.7491 44.8 19.4C44.8 22.051 46.949 24.2 49.6 24.2Z" fill="#EE4C2C"/>
<path d="M160.44 51.92C161.293 51.76 161.747 51.9467 161.8 52.48L162.28 55.28C162.387 55.92 162.04 56.2934 161.24 56.4C159.8 56.6667 158.147 56.9334 156.28 57.2C154.413 57.4134 152.467 57.6267 150.44 57.84C148.467 58.0534 146.413 58.2667 144.28 58.48C142.2 58.64 140.2 58.7734 138.28 58.88C136.787 58.9867 135.053 59.0667 133.08 59.12C131.107 59.1734 129.053 59.2267 126.92 59.28C124.84 59.28 122.787 59.28 120.76 59.28C118.733 59.28 116.947 59.2534 115.4 59.2C115.08 59.2 114.787 59.0934 114.52 58.88C114.307 58.6667 114.2 58.4267 114.2 58.16V55.44C114.2 55.12 114.307 54.88 114.52 54.72C114.787 54.56 115.08 54.48 115.4 54.48C116.573 54.5334 117.907 54.5867 119.4 54.64C120.893 54.64 122.467 54.6134 124.12 54.56V17.04H115.96C115.693 17.04 115.427 16.9334 115.16 16.72C114.947 16.5067 114.84 16.24 114.84 15.92V13.44C114.84 13.12 114.947 12.8534 115.16 12.64C115.427 12.4267 115.693 12.32 115.96 12.32H156.6C157.4 12.32 157.8 12.6667 157.8 13.36V16C157.8 16.6934 157.4 17.04 156.6 17.04H150.76V53.28C152.467 53.0667 154.12 52.8534 155.72 52.64C157.373 52.4267 158.947 52.1867 160.44 51.92ZM138.12 54.16C139.347 54.1067 140.547 54.0534 141.72 54C142.893 53.9467 144.093 53.8667 145.32 53.76V17.04H129.56V54.48C131.107 54.4267 132.6 54.4 134.04 54.4C135.533 54.3467 136.893 54.2667 138.12 54.16ZM172.6 78.96C172.6 79.7067 172.227 80.08 171.48 80.08H168.2C167.453 80.08 167.08 79.7067 167.08 78.96V7.44001C167.08 6.69334 167.453 6.32001 168.2 6.32001H171.48C172.227 6.32001 172.6 6.69334 172.6 7.44001V36.56H183.64C183.96 36.56 184.227 36.6667 184.44 36.88C184.707 37.04 184.84 37.28 184.84 37.6V40.32C184.84 40.5867 184.707 40.8267 184.44 41.04C184.227 41.2534 183.96 41.36 183.64 41.36H172.6V78.96ZM231.914 36.8C231.914 39.7867 231.541 42.8 230.794 45.84C230.101 48.88 228.981 51.6267 227.434 54.08C225.888 56.5334 223.888 58.56 221.434 60.16C219.034 61.7067 216.128 62.48 212.714 62.48C209.194 62.48 206.208 61.7067 203.754 60.16C201.354 58.6134 199.408 56.6134 197.914 54.16C196.474 51.6534 195.434 48.88 194.794 45.84C194.154 42.8 193.834 39.7867 193.834 36.8C193.834 33.6534 194.154 30.56 194.794 27.52C195.434 24.4267 196.474 21.6534 197.914 19.2C199.408 16.7467 201.354 14.7734 203.754 13.28C206.208 11.7867 209.194 11.04 212.714 11.04C216.128 11.04 219.034 11.7867 221.434 13.28C223.888 14.7734 225.888 16.7467 227.434 19.2C228.981 21.6 230.101 24.3467 230.794 27.44C231.541 30.48 231.914 33.6 231.914 36.8ZM226.234 36.72C226.234 34.2667 225.968 31.7867 225.434 29.28C224.954 26.7734 224.181 24.5334 223.114 22.56C222.048 20.5334 220.661 18.9067 218.954 17.68C217.248 16.4 215.168 15.76 212.714 15.76C210.154 15.76 208.021 16.4 206.314 17.68C204.661 18.9067 203.328 20.5334 202.314 22.56C201.301 24.5334 200.581 26.7734 200.154 29.28C199.728 31.7867 199.514 34.2667 199.514 36.72C199.514 39.0667 199.701 41.4934 200.074 44C200.501 46.4534 201.221 48.72 202.234 50.8C203.248 52.8267 204.608 54.5067 206.314 55.84C208.021 57.12 210.154 57.76 212.714 57.76C215.168 57.76 217.248 57.12 218.954 55.84C220.661 54.5067 222.048 52.8267 223.114 50.8C224.181 48.72 224.954 46.4534 225.434 44C225.968 41.4934 226.234 39.0667 226.234 36.72ZM250.634 78.96C250.634 79.7067 250.261 80.08 249.514 80.08H246.234C245.488 80.08 245.114 79.7067 245.114 78.96V7.44001C245.114 6.69334 245.488 6.32001 246.234 6.32001H249.514C250.261 6.32001 250.634 6.69334 250.634 7.44001V78.96ZM334.269 66.4C334.269 66.6667 334.135 66.9067 333.869 67.12C333.602 67.3334 333.335 67.44 333.069 67.44H265.069C264.749 67.44 264.455 67.3334 264.189 67.12C263.975 66.9067 263.869 66.6667 263.869 66.4V63.68C263.869 63.36 263.975 63.12 264.189 62.96C264.455 62.7467 264.749 62.64 265.069 62.64H296.109V47.92H280.109C277.762 47.92 276.162 47.5467 275.309 46.8C274.455 46 274.029 44.48 274.029 42.24V16.24C274.029 14 274.455 12.5067 275.309 11.76C276.162 10.96 277.762 10.56 280.109 10.56H322.749C323.442 10.56 323.789 10.9067 323.789 11.6V14.24C323.789 14.9867 323.442 15.36 322.749 15.36H281.469C280.722 15.36 280.215 15.52 279.949 15.84C279.682 16.1067 279.549 16.64 279.549 17.44V26.88H321.629C322.375 26.88 322.749 27.1734 322.749 27.76V30.48C322.749 31.1734 322.402 31.52 321.709 31.52H279.549V41.04C279.549 41.7867 279.682 42.32 279.949 42.64C280.215 42.96 280.722 43.12 281.469 43.12H323.309C324.002 43.12 324.349 43.4667 324.349 44.16V46.8C324.349 47.5467 324.002 47.92 323.309 47.92H301.629V62.64H333.069C333.335 62.64 333.602 62.7467 333.869 62.96C334.135 63.12 334.269 63.36 334.269 63.68V66.4ZM377.743 28.72C376.836 31.12 375.716 33.44 374.383 35.68C373.103 37.92 371.61 40.1067 369.903 42.24C370.916 43.52 372.09 44.8267 373.423 46.16C374.756 47.4934 376.116 48.7467 377.503 49.92C378.89 51.0934 380.276 52.16 381.663 53.12C383.103 54.08 384.463 54.88 385.743 55.52C386.33 55.84 386.436 56.32 386.063 56.96L384.543 59.6C384.17 60.24 383.636 60.3467 382.943 59.92C381.663 59.1734 380.303 58.2934 378.863 57.28C377.423 56.2134 375.983 55.0667 374.543 53.84C373.156 52.6134 371.77 51.3334 370.383 50C369.05 48.6667 367.796 47.3334 366.623 46C363.69 49.1467 360.41 52.0267 356.783 54.64C353.156 57.2534 349.29 59.5467 345.183 61.52C344.436 61.8934 343.93 61.8134 343.663 61.28L342.143 58.64C341.983 58.3734 341.956 58.1067 342.063 57.84C342.223 57.52 342.436 57.3067 342.703 57.2C349.156 54.1067 354.81 50.24 359.663 45.6C364.57 40.96 368.57 35.44 371.663 29.04C372.036 28.2934 372.09 27.76 371.823 27.44C371.556 27.12 371.05 26.96 370.303 26.96H346.063C345.423 26.96 345.103 26.6134 345.103 25.92V23.12C345.103 22.48 345.476 22.16 346.223 22.16H372.463C375.236 22.16 377.023 22.6667 377.823 23.68C378.676 24.64 378.65 26.32 377.743 28.72ZM401.103 78.96C401.103 79.7067 400.73 80.08 399.983 80.08H396.703C395.956 80.08 395.583 79.7067 395.583 78.96V7.44001C395.583 6.69334 395.956 6.32001 396.703 6.32001H399.983C400.73 6.32001 401.103 6.69334 401.103 7.44001V78.96ZM372.383 9.99999C373.183 9.99999 373.583 10.3734 373.583 11.12V13.68C373.583 14.48 373.183 14.88 372.383 14.88H352.623C351.823 14.88 351.423 14.48 351.423 13.68V11.12C351.423 10.3734 351.823 9.99999 352.623 9.99999H372.383Z" fill="black"/>
<path d="M459.25 57.25C459.25 58.45 458.983 59.5834 458.45 60.65C457.917 61.7167 457.183 62.65 456.25 63.45C455.35 64.25 454.267 64.8834 453 65.35C451.733 65.7834 450.367 66 448.9 66C447.433 66 446.067 65.7834 444.8 65.35C443.533 64.8834 442.433 64.25 441.5 63.45C440.6 62.65 439.883 61.7167 439.35 60.65C438.85 59.5834 438.6 58.45 438.6 57.25C438.6 56.05 438.85 54.9334 439.35 53.9C439.883 52.8334 440.6 51.9167 441.5 51.15C442.433 50.35 443.533 49.7334 444.8 49.3C446.067 48.8334 447.433 48.6 448.9 48.6C450.367 48.6 451.733 48.8334 453 49.3C454.267 49.7334 455.35 50.35 456.25 51.15C457.183 51.9167 457.917 52.8334 458.45 53.9C458.983 54.9334 459.25 56.05 459.25 57.25ZM470.5 69.95C470.5 70.4167 470.267 70.65 469.8 70.65H467.75C467.283 70.65 467.05 70.4167 467.05 69.95V35.8C467.05 35.3334 467.283 35.1 467.75 35.1H469.8C470.267 35.1 470.5 35.3334 470.5 35.8V52.35H477.4C477.6 52.35 477.767 52.4167 477.9 52.55C478.067 52.65 478.15 52.8 478.15 53V54.7C478.15 54.8667 478.067 55.0167 477.9 55.15C477.767 55.2834 477.6 55.35 477.4 55.35H470.5V69.95ZM455.85 57.25C455.85 56.45 455.667 55.7167 455.3 55.05C454.967 54.35 454.483 53.75 453.85 53.25C453.25 52.75 452.517 52.3667 451.65 52.1C450.817 51.8 449.9 51.65 448.9 51.65C447.9 51.65 446.983 51.8 446.15 52.1C445.317 52.3667 444.583 52.75 443.95 53.25C443.317 53.75 442.817 54.35 442.45 55.05C442.117 55.7167 441.95 56.45 441.95 57.25C441.95 58.05 442.117 58.8 442.45 59.5C442.817 60.2 443.317 60.8 443.95 61.3C444.583 61.8 445.317 62.2 446.15 62.5C446.983 62.8 447.9 62.95 448.9 62.95C449.9 62.95 450.817 62.8 451.65 62.5C452.517 62.2 453.25 61.8 453.85 61.3C454.483 60.8 454.967 60.2 455.3 59.5C455.667 58.8 455.85 58.05 455.85 57.25ZM472.75 79.85C472.75 80.05 472.667 80.2 472.5 80.3C472.333 80.4 472.167 80.45 472 80.45H446.2C444.633 80.45 443.6 80.15 443.1 79.55C442.633 78.9834 442.4 78.0167 442.4 76.65V69.75C442.4 69.2834 442.633 69.05 443.1 69.05H445.15C445.617 69.05 445.85 69.2834 445.85 69.75V76.45C445.85 76.9167 445.917 77.2 446.05 77.3C446.217 77.4 446.533 77.45 447 77.45H472C472.167 77.45 472.333 77.5 472.5 77.6C472.667 77.7334 472.75 77.8834 472.75 78.05V79.85ZM463.45 45.55C463.45 45.9834 463.2 46.2 462.7 46.2H435.1C434.933 46.2 434.767 46.1334 434.6 46C434.467 45.8667 434.4 45.7 434.4 45.5V43.9C434.4 43.7 434.467 43.5334 434.6 43.4C434.767 43.2667 434.933 43.2 435.1 43.2H462.7C463.2 43.2 463.45 43.4167 463.45 43.85V45.55ZM456.15 38.75C456.15 39.1834 455.9 39.4 455.4 39.4H441.7C441.533 39.4 441.367 39.35 441.2 39.25C441.067 39.15 441 39 441 38.8V37.05C441 36.85 441.067 36.6834 441.2 36.55C441.333 36.4167 441.483 36.35 441.65 36.35H455.4C455.9 36.35 456.15 36.5834 456.15 37.05V38.75ZM514.221 40.4C514.221 39.9 514.138 39.5667 513.971 39.4C513.805 39.2 513.488 39.1 513.021 39.1H487.921C487.488 39.1 487.271 38.8834 487.271 38.45V36.75C487.271 36.3167 487.488 36.1 487.921 36.1H513.771C515.338 36.1 516.371 36.3834 516.871 36.95C517.371 37.4834 517.621 38.4667 517.621 39.9C517.621 40.9 517.571 41.9834 517.471 43.15C517.405 44.2834 517.305 45.4334 517.171 46.6C517.038 47.7334 516.871 48.8667 516.671 50C516.505 51.1334 516.305 52.1667 516.071 53.1H523.771C523.938 53.1 524.105 53.1667 524.271 53.3C524.438 53.4 524.521 53.55 524.521 53.75V55.45C524.521 55.6167 524.438 55.7667 524.271 55.9C524.105 56.0334 523.938 56.1 523.771 56.1H504.171V65.75H513.771C515.338 65.75 516.355 66.05 516.821 66.65C517.321 67.2167 517.571 68.1834 517.571 69.55V81C517.571 81.4667 517.338 81.7 516.871 81.7H514.821C514.355 81.7 514.121 81.4667 514.121 81V69.8C514.121 69.3334 514.038 69.05 513.871 68.95C513.738 68.8167 513.438 68.75 512.971 68.75H487.371C487.205 68.75 487.038 68.7 486.871 68.6C486.705 68.4667 486.621 68.3167 486.621 68.15V66.35C486.621 66.15 486.705 66 486.871 65.9C487.038 65.8 487.205 65.75 487.371 65.75H500.721V56.1H481.271C481.071 56.1 480.888 56.0334 480.721 55.9C480.588 55.7667 480.521 55.6167 480.521 55.45V53.75C480.521 53.55 480.588 53.4 480.721 53.3C480.888 53.1667 481.071 53.1 481.271 53.1H512.921C513.121 52.1334 513.305 51.1167 513.471 50.05C513.638 48.95 513.771 47.85 513.871 46.75C514.005 45.6167 514.088 44.5167 514.121 43.45C514.188 42.3834 514.221 41.3667 514.221 40.4ZM557.907 38.35C557.907 40.55 557.807 42.6667 557.607 44.7C557.44 46.7 557.157 48.6334 556.757 50.5C557.09 51.8334 557.607 53.25 558.307 54.75C559.007 56.2167 559.823 57.6834 560.757 59.15C561.723 60.6167 562.79 62.05 563.957 63.45C565.157 64.8167 566.423 66.05 567.757 67.15C567.923 67.2834 568.007 67.45 568.007 67.65C568.04 67.85 568.007 68.0167 567.907 68.15L566.657 69.7C566.357 70.0667 566.007 70.0667 565.607 69.7C564.673 68.9 563.707 67.95 562.707 66.85C561.74 65.7167 560.79 64.5334 559.857 63.3C558.957 62.0667 558.107 60.8 557.307 59.5C556.507 58.2 555.823 56.95 555.257 55.75C554.19 58.7834 552.79 61.5834 551.057 64.15C549.323 66.6834 547.257 69.05 544.857 71.25C544.523 71.5167 544.24 71.5334 544.007 71.3L542.507 69.75C542.407 69.65 542.357 69.5167 542.357 69.35C542.39 69.1834 542.49 69.0167 542.657 68.85C544.69 66.9167 546.457 64.8834 547.957 62.75C549.457 60.6167 550.673 58.3167 551.607 55.85C552.573 53.3834 553.273 50.7 553.707 47.8C554.173 44.9 554.407 41.7167 554.407 38.25C554.407 38.0167 554.457 37.85 554.557 37.75C554.69 37.6167 554.84 37.55 555.007 37.55L557.357 37.65C557.723 37.65 557.907 37.8834 557.907 38.35ZM578.557 80.5C578.557 80.9667 578.323 81.2 577.857 81.2H575.807C575.34 81.2 575.107 80.9667 575.107 80.5V35.8C575.107 35.3334 575.34 35.1 575.807 35.1H577.857C578.323 35.1 578.557 35.3334 578.557 35.8V54H585.457C585.657 54 585.823 54.0667 585.957 54.2C586.123 54.3 586.207 54.45 586.207 54.65V56.35C586.207 56.5167 586.123 56.6667 585.957 56.8C585.823 56.9334 585.657 57 585.457 57H578.557V80.5ZM631.828 58.75C631.995 58.75 632.161 58.8167 632.328 58.95C632.495 59.05 632.578 59.2 632.578 59.4V61.1C632.578 61.2667 632.495 61.4167 632.328 61.55C632.161 61.6834 631.995 61.75 631.828 61.75H589.328C589.128 61.75 588.945 61.6834 588.778 61.55C588.645 61.4167 588.578 61.2667 588.578 61.1V59.4C588.578 59.2 588.645 59.05 588.778 58.95C588.945 58.8167 589.128 58.75 589.328 58.75H600.678V50.7C599.078 50.0334 597.728 49.15 596.628 48.05C595.561 46.95 595.028 45.55 595.028 43.85C595.028 42.2167 595.545 40.85 596.578 39.75C597.645 38.65 598.945 37.7834 600.478 37.15C602.045 36.5167 603.728 36.0667 605.528 35.8C607.361 35.5334 609.045 35.4 610.578 35.4C612.145 35.4 613.828 35.55 615.628 35.85C617.461 36.15 619.145 36.6334 620.678 37.3C622.245 37.9667 623.545 38.85 624.578 39.95C625.611 41.0167 626.128 42.3167 626.128 43.85C626.128 45.4834 625.578 46.85 624.478 47.95C623.411 49.05 622.061 49.9334 620.428 50.6V58.75H631.828ZM626.078 73.35C626.078 75.05 625.545 76.4334 624.478 77.5C623.411 78.5667 622.095 79.4 620.528 80C618.961 80.6 617.261 81 615.428 81.2C613.628 81.4334 611.978 81.55 610.478 81.55C609.478 81.55 608.395 81.5 607.228 81.4C606.095 81.3 604.945 81.1334 603.778 80.9C602.645 80.7 601.545 80.4 600.478 80C599.411 79.6 598.461 79.0834 597.628 78.45C596.828 77.85 596.178 77.1334 595.678 76.3C595.178 75.4667 594.928 74.4834 594.928 73.35C594.928 71.6834 595.461 70.3334 596.528 69.3C597.595 68.2334 598.911 67.4 600.478 66.8C602.045 66.2 603.728 65.7834 605.528 65.55C607.361 65.3167 609.011 65.2 610.478 65.2C611.978 65.2 613.628 65.3167 615.428 65.55C617.261 65.75 618.961 66.15 620.528 66.75C622.128 67.35 623.445 68.1834 624.478 69.25C625.545 70.3167 626.078 71.6834 626.078 73.35ZM610.578 38.55C609.511 38.55 608.295 38.6167 606.928 38.75C605.561 38.8834 604.261 39.15 603.028 39.55C601.828 39.95 600.795 40.5 599.928 41.2C599.095 41.9 598.678 42.8 598.678 43.9C598.678 45 599.095 45.9 599.928 46.6C600.795 47.3 601.828 47.85 603.028 48.25C604.261 48.65 605.561 48.9167 606.928 49.05C608.295 49.1834 609.511 49.25 610.578 49.25C611.611 49.25 612.811 49.1834 614.178 49.05C615.545 48.9167 616.845 48.65 618.078 48.25C619.311 47.85 620.345 47.3 621.178 46.6C622.045 45.9 622.478 45 622.478 43.9C622.478 42.8 622.045 41.9 621.178 41.2C620.345 40.5 619.311 39.95 618.078 39.55C616.845 39.15 615.545 38.8834 614.178 38.75C612.811 38.6167 611.611 38.55 610.578 38.55ZM622.428 73.4C622.428 72.3 621.978 71.4334 621.078 70.8C620.178 70.1334 619.095 69.6167 617.828 69.25C616.561 68.8834 615.245 68.65 613.878 68.55C612.545 68.4167 611.411 68.35 610.478 68.35C609.511 68.35 608.345 68.4167 606.978 68.55C605.645 68.65 604.345 68.8834 603.078 69.25C601.845 69.6167 600.778 70.1334 599.878 70.8C599.011 71.4334 598.578 72.3 598.578 73.4C598.578 74.4667 599.011 75.3334 599.878 76C600.778 76.6667 601.845 77.1667 603.078 77.5C604.345 77.8667 605.645 78.1 606.978 78.2C608.345 78.3334 609.511 78.4 610.478 78.4C611.411 78.4 612.561 78.3334 613.928 78.2C615.295 78.1 616.595 77.8667 617.828 77.5C619.095 77.1667 620.178 76.6667 621.078 76C621.978 75.3334 622.428 74.4667 622.428 73.4ZM610.578 52.35C609.611 52.35 608.561 52.3167 607.428 52.25C606.328 52.15 605.228 51.9667 604.128 51.7V58.75H616.978V51.65C615.878 51.9167 614.778 52.1 613.678 52.2C612.578 52.3 611.545 52.35 610.578 52.35ZM662.8 67.5C662.7 67.6667 662.566 67.7667 662.4 67.8C662.266 67.8334 662.066 67.75 661.8 67.55C661 66.95 660.15 66.2667 659.25 65.5C658.35 64.7 657.466 63.8667 656.6 63C655.733 62.1 654.883 61.1834 654.05 60.25C653.216 59.2834 652.45 58.3334 651.75 57.4C650.083 59.5 648.183 61.5167 646.05 63.45C643.916 65.35 641.483 67.25 638.75 69.15C638.583 69.25 638.416 69.3334 638.25 69.4C638.083 69.4334 637.95 69.3834 637.85 69.25L636.65 67.7C636.516 67.5334 636.466 67.3667 636.5 67.2C636.533 67 636.616 66.85 636.75 66.75C642.083 62.9834 646.233 59.1667 649.2 55.3C652.2 51.4334 654.283 47.4 655.45 43.2C655.583 42.7334 655.583 42.4 655.45 42.2C655.35 41.9667 655.066 41.85 654.6 41.85H639.45C639.05 41.85 638.85 41.6334 638.85 41.2V39.45C638.85 39.05 639.083 38.85 639.55 38.85H655.95C657.683 38.85 658.783 39.15 659.25 39.75C659.716 40.35 659.716 41.4167 659.25 42.95C657.95 47.2167 656.116 51.1334 653.75 54.7C654.516 55.7667 655.333 56.8167 656.2 57.85C657.066 58.8834 657.933 59.8667 658.8 60.8C659.666 61.7 660.533 62.5334 661.4 63.3C662.266 64.0334 663.083 64.65 663.85 65.15C664.016 65.2834 664.1 65.4334 664.1 65.6C664.1 65.7667 664.05 65.9167 663.95 66.05L662.8 67.5ZM672.6 80.5C672.6 80.9667 672.366 81.2 671.9 81.2H669.85C669.383 81.2 669.15 80.9667 669.15 80.5V35.8C669.15 35.3334 669.383 35.1 669.85 35.1H671.9C672.366 35.1 672.6 35.3334 672.6 35.8V54H679.5C679.7 54 679.866 54.0667 680 54.2C680.166 54.3 680.25 54.45 680.25 54.65V56.35C680.25 56.5167 680.166 56.6667 680 56.8C679.866 56.9334 679.7 57 679.5 57H672.6V80.5ZM702.985 41.9C702.985 40.5 703.251 39.5667 703.785 39.1C704.318 38.6 705.318 38.35 706.785 38.35H730.235C731.035 38.35 731.668 38.4 732.135 38.5C732.635 38.6 733.018 38.7834 733.285 39.05C733.585 39.3167 733.785 39.6834 733.885 40.15C733.985 40.6167 734.035 41.2 734.035 41.9V55.85C734.035 57.25 733.768 58.2 733.235 58.7C732.701 59.1667 731.701 59.4 730.235 59.4H720.235V70.3H739.885C740.051 70.3 740.218 70.3667 740.385 70.5C740.551 70.6 740.635 70.75 740.635 70.95V72.65C740.635 72.8167 740.551 72.9667 740.385 73.1C740.218 73.2334 740.051 73.3 739.885 73.3H697.385C697.185 73.3 697.001 73.2334 696.835 73.1C696.701 72.9667 696.635 72.8167 696.635 72.65V70.95C696.635 70.75 696.701 70.6 696.835 70.5C697.001 70.3667 697.185 70.3 697.385 70.3H716.785V59.4H706.785C705.985 59.4 705.335 59.35 704.835 59.25C704.368 59.15 703.985 58.9667 703.685 58.7C703.418 58.4 703.235 58.0334 703.135 57.6C703.035 57.1334 702.985 56.55 702.985 55.85V41.9ZM707.635 41.35C707.168 41.35 706.851 41.45 706.685 41.65C706.518 41.8167 706.435 42.15 706.435 42.65V55.1C706.435 55.6 706.518 55.95 706.685 56.15C706.851 56.3167 707.168 56.4 707.635 56.4H729.385C729.851 56.4 730.168 56.3167 730.335 56.15C730.501 55.95 730.585 55.6 730.585 55.1V42.65C730.585 42.15 730.501 41.8167 730.335 41.65C730.168 41.45 729.851 41.35 729.385 41.35H707.635ZM782.406 60.75C782.406 61.2167 782.173 61.45 781.706 61.45H779.656C779.19 61.45 778.956 61.2167 778.956 60.75V35.8C778.956 35.3334 779.19 35.1 779.656 35.1H781.706C782.173 35.1 782.406 35.3334 782.406 35.8V60.75ZM753.856 67.8C753.856 66.4 754.123 65.4667 754.656 65C755.19 64.5 756.19 64.25 757.656 64.25H778.606C779.406 64.25 780.04 64.3 780.506 64.4C781.006 64.5 781.39 64.6834 781.656 64.95C781.956 65.2167 782.156 65.5834 782.256 66.05C782.356 66.5167 782.406 67.1 782.406 67.8V77.25C782.406 78.65 782.14 79.5834 781.606 80.05C781.073 80.55 780.073 80.8 778.606 80.8H757.656C756.856 80.8 756.206 80.75 755.706 80.65C755.24 80.55 754.856 80.35 754.556 80.05C754.29 79.7834 754.106 79.4167 754.006 78.95C753.906 78.5167 753.856 77.95 753.856 77.25V67.8ZM758.506 67.25C758.04 67.25 757.723 67.35 757.556 67.55C757.39 67.7167 757.306 68.05 757.306 68.55V76.5C757.306 77 757.39 77.3334 757.556 77.5C757.723 77.7 758.04 77.8 758.506 77.8H777.756C778.223 77.8 778.54 77.7 778.706 77.5C778.873 77.3334 778.956 77 778.956 76.5V68.55C778.956 68.05 778.873 67.7167 778.706 67.55C778.54 67.35 778.223 67.25 777.756 67.25H758.506ZM770.156 48.2C770.156 49.8667 769.856 51.4 769.256 52.8C768.656 54.1667 767.823 55.35 766.756 56.35C765.69 57.35 764.423 58.1334 762.956 58.7C761.523 59.2667 759.956 59.55 758.256 59.55C756.623 59.55 755.09 59.2834 753.656 58.75C752.223 58.1834 750.973 57.4 749.906 56.4C748.873 55.4 748.056 54.2 747.456 52.8C746.856 51.4 746.556 49.8667 746.556 48.2C746.556 46.4334 746.856 44.85 747.456 43.45C748.056 42.0167 748.873 40.8167 749.906 39.85C750.973 38.85 752.223 38.1 753.656 37.6C755.09 37.0667 756.623 36.8 758.256 36.8C759.79 36.8 761.273 37.0667 762.706 37.6C764.14 38.1 765.406 38.8334 766.506 39.8C767.606 40.7667 768.49 41.9667 769.156 43.4C769.823 44.8 770.156 46.4 770.156 48.2ZM766.656 48.15C766.656 46.8167 766.423 45.65 765.956 44.65C765.523 43.6167 764.923 42.7667 764.156 42.1C763.39 41.4 762.49 40.8834 761.456 40.55C760.456 40.1834 759.39 40 758.256 40C757.09 40 756.006 40.1834 755.006 40.55C754.04 40.8834 753.173 41.4 752.406 42.1C751.673 42.7667 751.09 43.6167 750.656 44.65C750.256 45.65 750.056 46.8167 750.056 48.15C750.056 49.4167 750.256 50.55 750.656 51.55C751.056 52.55 751.623 53.4167 752.356 54.15C753.09 54.8834 753.956 55.45 754.956 55.85C755.956 56.2167 757.056 56.4 758.256 56.4C759.39 56.4 760.456 56.2167 761.456 55.85C762.49 55.45 763.39 54.8834 764.156 54.15C764.923 53.4167 765.523 52.55 765.956 51.55C766.423 50.55 766.656 49.4167 766.656 48.15Z" fill="black"/>
</svg>
