<svg width="330" height="94" viewBox="0 0 330 94" fill="none" xmlns="http://www.w3.org/2000/svg">
<path d="M62.5 30.8L55.9 37.4C66.7 48.2 66.7 65.6 55.9 76.2C45.1 87 27.7 87 17.1 76.2C6.3 65.4 6.3 48 17.1 37.4L34.2 20.3L36.6 17.9V5L10.8 30.8C-3.6 45.2 -3.6 68.4 10.8 82.8C25.2 97.2 48.4 97.2 62.5 82.8C76.9 68.3 76.9 45.2 62.5 30.8Z" fill="#EE4C2C"/>
<path d="M49.6 29.2C52.251 29.2 54.4 27.051 54.4 24.4C54.4 21.7491 52.251 19.6 49.6 19.6C46.949 19.6 44.8 21.7491 44.8 24.4C44.8 27.051 46.949 29.2 49.6 29.2Z" fill="#EE4C2C"/>
<path d="M140.528 35.64C141.168 35.52 141.508 35.66 141.548 36.06L141.908 38.16C141.988 38.64 141.728 38.92 141.128 39C140.048 39.2 138.808 39.4 137.408 39.6C136.008 39.76 134.548 39.92 133.028 40.08C131.548 40.24 130.008 40.4 128.408 40.56C126.848 40.68 125.348 40.78 123.908 40.86C122.788 40.94 121.488 41 120.008 41.04C118.528 41.08 116.988 41.12 115.388 41.16C113.828 41.16 112.288 41.16 110.768 41.16C109.248 41.16 107.908 41.14 106.748 41.1C106.508 41.1 106.288 41.02 106.088 40.86C105.928 40.7 105.848 40.52 105.848 40.32V38.28C105.848 38.04 105.928 37.86 106.088 37.74C106.288 37.62 106.508 37.56 106.748 37.56C107.628 37.6 108.628 37.64 109.748 37.68C110.868 37.68 112.048 37.66 113.288 37.62V9.48H107.168C106.968 9.48 106.768 9.4 106.568 9.24C106.408 9.08 106.328 8.88 106.328 8.64V6.78C106.328 6.54 106.408 6.34 106.568 6.18C106.768 6.02 106.968 5.94 107.168 5.94H137.648C138.248 5.94 138.548 6.2 138.548 6.72V8.7C138.548 9.22 138.248 9.48 137.648 9.48H133.268V36.66C134.548 36.5 135.788 36.34 136.988 36.18C138.228 36.02 139.408 35.84 140.528 35.64ZM123.788 37.32C124.708 37.28 125.608 37.24 126.488 37.2C127.368 37.16 128.268 37.1 129.188 37.02V9.48H117.368V37.56C118.528 37.52 119.648 37.5 120.728 37.5C121.848 37.46 122.868 37.4 123.788 37.32ZM149.648 55.92C149.648 56.48 149.368 56.76 148.808 56.76H146.348C145.788 56.76 145.508 56.48 145.508 55.92V2.28C145.508 1.72 145.788 1.44 146.348 1.44H148.808C149.368 1.44 149.648 1.72 149.648 2.28V24.12H157.928C158.168 24.12 158.368 24.2 158.528 24.36C158.728 24.48 158.828 24.66 158.828 24.9V26.94C158.828 27.14 158.728 27.32 158.528 27.48C158.368 27.64 158.168 27.72 157.928 27.72H149.648V55.92ZM194.134 24.3C194.134 26.54 193.854 28.8 193.294 31.08C192.774 33.36 191.934 35.42 190.774 37.26C189.614 39.1 188.114 40.62 186.274 41.82C184.474 42.98 182.294 43.56 179.734 43.56C177.094 43.56 174.854 42.98 173.014 41.82C171.214 40.66 169.754 39.16 168.634 37.32C167.554 35.44 166.774 33.36 166.294 31.08C165.814 28.8 165.574 26.54 165.574 24.3C165.574 21.94 165.814 19.62 166.294 17.34C166.774 15.02 167.554 12.94 168.634 11.1C169.754 9.26 171.214 7.78 173.014 6.66C174.854 5.54 177.094 4.98 179.734 4.98C182.294 4.98 184.474 5.54 186.274 6.66C188.114 7.78 189.614 9.26 190.774 11.1C191.934 12.9 192.774 14.96 193.294 17.28C193.854 19.56 194.134 21.9 194.134 24.3ZM189.874 24.24C189.874 22.4 189.674 20.54 189.274 18.66C188.914 16.78 188.334 15.1 187.534 13.62C186.734 12.1 185.694 10.88 184.414 9.96C183.134 9 181.574 8.52 179.734 8.52C177.814 8.52 176.214 9 174.934 9.96C173.694 10.88 172.694 12.1 171.934 13.62C171.174 15.1 170.634 16.78 170.314 18.66C169.994 20.54 169.834 22.4 169.834 24.24C169.834 26 169.974 27.82 170.254 29.7C170.574 31.54 171.114 33.24 171.874 34.8C172.634 36.32 173.654 37.58 174.934 38.58C176.214 39.54 177.814 40.02 179.734 40.02C181.574 40.02 183.134 39.54 184.414 38.58C185.694 37.58 186.734 36.32 187.534 34.8C188.334 33.24 188.914 31.54 189.274 29.7C189.674 27.82 189.874 26 189.874 24.24ZM208.174 55.92C208.174 56.48 207.894 56.76 207.334 56.76H204.874C204.314 56.76 204.034 56.48 204.034 55.92V2.28C204.034 1.72 204.314 1.44 204.874 1.44H207.334C207.894 1.44 208.174 1.72 208.174 2.28V55.92ZM270.9 46.5C270.9 46.7 270.8 46.88 270.6 47.04C270.4 47.2 270.2 47.28 270 47.28H219C218.76 47.28 218.54 47.2 218.34 47.04C218.18 46.88 218.1 46.7 218.1 46.5V44.46C218.1 44.22 218.18 44.04 218.34 43.92C218.54 43.76 218.76 43.68 219 43.68H242.28V32.64H230.28C228.52 32.64 227.32 32.36 226.68 31.8C226.04 31.2 225.72 30.06 225.72 28.38V8.88C225.72 7.2 226.04 6.08 226.68 5.52C227.32 4.92 228.52 4.62 230.28 4.62H262.26C262.78 4.62 263.04 4.88 263.04 5.4V7.38C263.04 7.94 262.78 8.22 262.26 8.22H231.3C230.74 8.22 230.36 8.34 230.16 8.58C229.96 8.78 229.86 9.18 229.86 9.78V16.86H261.42C261.98 16.86 262.26 17.08 262.26 17.52V19.56C262.26 20.08 262 20.34 261.48 20.34H229.86V27.48C229.86 28.04 229.96 28.44 230.16 28.68C230.36 28.92 230.74 29.04 231.3 29.04H262.68C263.2 29.04 263.46 29.3 263.46 29.82V31.8C263.46 32.36 263.2 32.64 262.68 32.64H246.42V43.68H270C270.2 43.68 270.4 43.76 270.6 43.92C270.8 44.04 270.9 44.22 270.9 44.46V46.5ZM303.506 18.24C302.826 20.04 301.986 21.78 300.986 23.46C300.026 25.14 298.906 26.78 297.626 28.38C298.386 29.34 299.266 30.32 300.266 31.32C301.266 32.32 302.286 33.26 303.326 34.14C304.366 35.02 305.406 35.82 306.446 36.54C307.526 37.26 308.546 37.86 309.506 38.34C309.946 38.58 310.026 38.94 309.746 39.42L308.606 41.4C308.326 41.88 307.926 41.96 307.406 41.64C306.446 41.08 305.426 40.42 304.346 39.66C303.266 38.86 302.186 38 301.106 37.08C300.066 36.16 299.026 35.2 297.986 34.2C296.986 33.2 296.046 32.2 295.166 31.2C292.966 33.56 290.506 35.72 287.786 37.68C285.066 39.64 282.166 41.36 279.086 42.84C278.526 43.12 278.146 43.06 277.946 42.66L276.806 40.68C276.686 40.48 276.666 40.28 276.746 40.08C276.866 39.84 277.026 39.68 277.226 39.6C282.066 37.28 286.306 34.38 289.946 30.9C293.626 27.42 296.626 23.28 298.946 18.48C299.226 17.92 299.266 17.52 299.066 17.28C298.866 17.04 298.486 16.92 297.926 16.92H279.746C279.266 16.92 279.026 16.66 279.026 16.14V14.04C279.026 13.56 279.306 13.32 279.866 13.32H299.546C301.626 13.32 302.966 13.7 303.566 14.46C304.206 15.18 304.186 16.44 303.506 18.24ZM321.026 55.92C321.026 56.48 320.746 56.76 320.186 56.76H317.726C317.166 56.76 316.886 56.48 316.886 55.92V2.28C316.886 1.72 317.166 1.44 317.726 1.44H320.186C320.746 1.44 321.026 1.72 321.026 2.28V55.92ZM299.486 4.2C300.086 4.2 300.386 4.48 300.386 5.04V6.96C300.386 7.56 300.086 7.86 299.486 7.86H284.666C284.066 7.86 283.766 7.56 283.766 6.96V5.04C283.766 4.48 284.066 4.2 284.666 4.2H299.486Z" fill="white"/>
<path d="M120.47 76.727C120.47 77.471 120.305 78.1736 119.974 78.835C119.643 79.4963 119.189 80.075 118.61 80.571C118.052 81.067 117.38 81.4596 116.595 81.749C115.81 82.0176 114.962 82.152 114.053 82.152C113.144 82.152 112.296 82.0176 111.511 81.749C110.726 81.4596 110.044 81.067 109.465 80.571C108.907 80.075 108.463 79.4963 108.132 78.835C107.822 78.1736 107.667 77.471 107.667 76.727C107.667 75.983 107.822 75.2906 108.132 74.65C108.463 73.9886 108.907 73.4203 109.465 72.945C110.044 72.449 110.726 72.0666 111.511 71.798C112.296 71.5086 113.144 71.364 114.053 71.364C114.962 71.364 115.81 71.5086 116.595 71.798C117.38 72.0666 118.052 72.449 118.61 72.945C119.189 73.4203 119.643 73.9886 119.974 74.65C120.305 75.2906 120.47 75.983 120.47 76.727ZM127.445 84.601C127.445 84.8903 127.3 85.035 127.011 85.035H125.74C125.451 85.035 125.306 84.8903 125.306 84.601V63.428C125.306 63.1386 125.451 62.994 125.74 62.994H127.011C127.3 62.994 127.445 63.1386 127.445 63.428V73.689H131.723C131.847 73.689 131.95 73.7303 132.033 73.813C132.136 73.875 132.188 73.968 132.188 74.092V75.146C132.188 75.2493 132.136 75.3423 132.033 75.425C131.95 75.5076 131.847 75.549 131.723 75.549H127.445V84.601ZM118.362 76.727C118.362 76.231 118.248 75.7763 118.021 75.363C117.814 74.929 117.515 74.557 117.122 74.247C116.75 73.937 116.295 73.6993 115.758 73.534C115.241 73.348 114.673 73.255 114.053 73.255C113.433 73.255 112.865 73.348 112.348 73.534C111.831 73.6993 111.377 73.937 110.984 74.247C110.591 74.557 110.281 74.929 110.054 75.363C109.847 75.7763 109.744 76.231 109.744 76.727C109.744 77.223 109.847 77.688 110.054 78.122C110.281 78.556 110.591 78.928 110.984 79.238C111.377 79.548 111.831 79.796 112.348 79.982C112.865 80.168 113.433 80.261 114.053 80.261C114.673 80.261 115.241 80.168 115.758 79.982C116.295 79.796 116.75 79.548 117.122 79.238C117.515 78.928 117.814 78.556 118.021 78.122C118.248 77.688 118.362 77.223 118.362 76.727ZM128.84 90.739C128.84 90.863 128.788 90.956 128.685 91.018C128.582 91.08 128.478 91.111 128.375 91.111H112.379C111.408 91.111 110.767 90.925 110.457 90.553C110.168 90.2016 110.023 89.6023 110.023 88.755V84.477C110.023 84.1876 110.168 84.043 110.457 84.043H111.728C112.017 84.043 112.162 84.1876 112.162 84.477V88.631C112.162 88.9203 112.203 89.096 112.286 89.158C112.389 89.22 112.586 89.251 112.875 89.251H128.375C128.478 89.251 128.582 89.282 128.685 89.344C128.788 89.4266 128.84 89.5196 128.84 89.623V90.739ZM123.074 69.473C123.074 69.7416 122.919 69.876 122.609 69.876H105.497C105.394 69.876 105.29 69.8346 105.187 69.752C105.104 69.6693 105.063 69.566 105.063 69.442V68.45C105.063 68.326 105.104 68.2226 105.187 68.14C105.29 68.0573 105.394 68.016 105.497 68.016H122.609C122.919 68.016 123.074 68.1503 123.074 68.419V69.473ZM118.548 65.257C118.548 65.5256 118.393 65.66 118.083 65.66H109.589C109.486 65.66 109.382 65.629 109.279 65.567C109.196 65.505 109.155 65.412 109.155 65.288V64.203C109.155 64.079 109.196 63.9756 109.279 63.893C109.362 63.8103 109.455 63.769 109.558 63.769H118.083C118.393 63.769 118.548 63.9136 118.548 64.203V65.257ZM154.552 66.28C154.552 65.97 154.501 65.7633 154.397 65.66C154.294 65.536 154.098 65.474 153.808 65.474H138.246C137.978 65.474 137.843 65.3396 137.843 65.071V64.017C137.843 63.7483 137.978 63.614 138.246 63.614H154.273C155.245 63.614 155.885 63.7896 156.195 64.141C156.505 64.4716 156.66 65.0813 156.66 65.97C156.66 66.59 156.629 67.2616 156.567 67.985C156.526 68.6876 156.464 69.4006 156.381 70.124C156.299 70.8266 156.195 71.5293 156.071 72.232C155.968 72.9346 155.844 73.5753 155.699 74.154H160.473C160.577 74.154 160.68 74.1953 160.783 74.278C160.887 74.34 160.938 74.433 160.938 74.557V75.611C160.938 75.7143 160.887 75.8073 160.783 75.89C160.68 75.9726 160.577 76.014 160.473 76.014H148.321V81.997H154.273C155.245 81.997 155.875 82.183 156.164 82.555C156.474 82.9063 156.629 83.5056 156.629 84.353V91.452C156.629 91.7413 156.485 91.886 156.195 91.886H154.924C154.635 91.886 154.49 91.7413 154.49 91.452V84.508C154.49 84.2186 154.439 84.043 154.335 83.981C154.253 83.8983 154.067 83.857 153.777 83.857H137.905C137.802 83.857 137.699 83.826 137.595 83.764C137.492 83.6813 137.44 83.5883 137.44 83.485V82.369C137.44 82.245 137.492 82.152 137.595 82.09C137.699 82.028 137.802 81.997 137.905 81.997H146.182V76.014H134.123C133.999 76.014 133.886 75.9726 133.782 75.89C133.7 75.8073 133.658 75.7143 133.658 75.611V74.557C133.658 74.433 133.7 74.34 133.782 74.278C133.886 74.1953 133.999 74.154 134.123 74.154H153.746C153.87 73.5546 153.984 72.9243 154.087 72.263C154.191 71.581 154.273 70.899 154.335 70.217C154.418 69.5143 154.47 68.8323 154.49 68.171C154.532 67.5096 154.552 66.8793 154.552 66.28ZM181.637 65.009C181.637 66.373 181.575 67.6853 181.451 68.946C181.348 70.186 181.172 71.3846 180.924 72.542C181.131 73.3686 181.451 74.247 181.885 75.177C182.319 76.0863 182.825 76.9956 183.404 77.905C184.003 78.8143 184.665 79.703 185.388 80.571C186.132 81.4183 186.917 82.183 187.744 82.865C187.847 82.9476 187.899 83.051 187.899 83.175C187.92 83.299 187.899 83.4023 187.837 83.485L187.062 84.446C186.876 84.6733 186.659 84.6733 186.411 84.446C185.832 83.95 185.233 83.361 184.613 82.679C184.014 81.9763 183.425 81.2426 182.846 80.478C182.288 79.7133 181.761 78.928 181.265 78.122C180.769 77.316 180.345 76.541 179.994 75.797C179.333 77.6776 178.465 79.4136 177.39 81.005C176.315 82.5756 175.034 84.043 173.546 85.407C173.339 85.5723 173.164 85.5826 173.019 85.438L172.089 84.477C172.027 84.415 171.996 84.3323 171.996 84.229C172.017 84.1256 172.079 84.0223 172.182 83.919C173.443 82.7203 174.538 81.4596 175.468 80.137C176.398 78.8143 177.152 77.3883 177.731 75.859C178.33 74.3296 178.764 72.666 179.033 70.868C179.322 69.07 179.467 67.0963 179.467 64.947C179.467 64.8023 179.498 64.699 179.56 64.637C179.643 64.5543 179.736 64.513 179.839 64.513L181.296 64.575C181.523 64.575 181.637 64.7196 181.637 65.009ZM194.44 91.142C194.44 91.4313 194.295 91.576 194.006 91.576H192.735C192.446 91.576 192.301 91.4313 192.301 91.142V63.428C192.301 63.1386 192.446 62.994 192.735 62.994H194.006C194.295 62.994 194.44 63.1386 194.44 63.428V74.712H198.718C198.842 74.712 198.945 74.7533 199.028 74.836C199.131 74.898 199.183 74.991 199.183 75.115V76.169C199.183 76.2723 199.131 76.3653 199.028 76.448C198.945 76.5306 198.842 76.572 198.718 76.572H194.44V91.142ZM227.468 77.657C227.572 77.657 227.675 77.6983 227.778 77.781C227.882 77.843 227.933 77.936 227.933 78.06V79.114C227.933 79.2173 227.882 79.3103 227.778 79.393C227.675 79.4756 227.572 79.517 227.468 79.517H201.118C200.994 79.517 200.881 79.4756 200.777 79.393C200.695 79.3103 200.653 79.2173 200.653 79.114V78.06C200.653 77.936 200.695 77.843 200.777 77.781C200.881 77.6983 200.994 77.657 201.118 77.657H208.155V72.666C207.163 72.2526 206.326 71.705 205.644 71.023C204.983 70.341 204.652 69.473 204.652 68.419C204.652 67.4063 204.973 66.559 205.613 65.877C206.275 65.195 207.081 64.6576 208.031 64.265C209.003 63.8723 210.046 63.5933 211.162 63.428C212.299 63.2626 213.343 63.18 214.293 63.18C215.265 63.18 216.308 63.273 217.424 63.459C218.561 63.645 219.605 63.9446 220.555 64.358C221.527 64.7713 222.333 65.319 222.973 66.001C223.614 66.6623 223.934 67.4683 223.934 68.419C223.934 69.4316 223.593 70.279 222.911 70.961C222.25 71.643 221.413 72.1906 220.4 72.604V77.657H227.468ZM223.903 86.709C223.903 87.763 223.573 88.6206 222.911 89.282C222.25 89.9433 221.434 90.46 220.462 90.832C219.491 91.204 218.437 91.452 217.3 91.576C216.184 91.7206 215.161 91.793 214.231 91.793C213.611 91.793 212.94 91.762 212.216 91.7C211.514 91.638 210.801 91.5346 210.077 91.39C209.375 91.266 208.693 91.08 208.031 90.832C207.37 90.584 206.781 90.2636 206.264 89.871C205.768 89.499 205.365 89.0546 205.055 88.538C204.745 88.0213 204.59 87.4116 204.59 86.709C204.59 85.6756 204.921 84.8386 205.582 84.198C206.244 83.5366 207.06 83.02 208.031 82.648C209.003 82.276 210.046 82.0176 211.162 81.873C212.299 81.7283 213.322 81.656 214.231 81.656C215.161 81.656 216.184 81.7283 217.3 81.873C218.437 81.997 219.491 82.245 220.462 82.617C221.454 82.989 222.271 83.5056 222.911 84.167C223.573 84.8283 223.903 85.6756 223.903 86.709ZM214.293 65.133C213.632 65.133 212.878 65.1743 212.03 65.257C211.183 65.3396 210.377 65.505 209.612 65.753C208.868 66.001 208.228 66.342 207.69 66.776C207.174 67.21 206.915 67.768 206.915 68.45C206.915 69.132 207.174 69.69 207.69 70.124C208.228 70.558 208.868 70.899 209.612 71.147C210.377 71.395 211.183 71.5603 212.03 71.643C212.878 71.7256 213.632 71.767 214.293 71.767C214.934 71.767 215.678 71.7256 216.525 71.643C217.373 71.5603 218.179 71.395 218.943 71.147C219.708 70.899 220.349 70.558 220.865 70.124C221.403 69.69 221.671 69.132 221.671 68.45C221.671 67.768 221.403 67.21 220.865 66.776C220.349 66.342 219.708 66.001 218.943 65.753C218.179 65.505 217.373 65.3396 216.525 65.257C215.678 65.1743 214.934 65.133 214.293 65.133ZM221.64 86.74C221.64 86.058 221.361 85.5206 220.803 85.128C220.245 84.7146 219.574 84.3943 218.788 84.167C218.003 83.9396 217.187 83.795 216.339 83.733C215.513 83.6503 214.81 83.609 214.231 83.609C213.632 83.609 212.909 83.6503 212.061 83.733C211.235 83.795 210.429 83.9396 209.643 84.167C208.879 84.3943 208.217 84.7146 207.659 85.128C207.122 85.5206 206.853 86.058 206.853 86.74C206.853 87.4013 207.122 87.9386 207.659 88.352C208.217 88.7653 208.879 89.0753 209.643 89.282C210.429 89.5093 211.235 89.654 212.061 89.716C212.909 89.7986 213.632 89.84 214.231 89.84C214.81 89.84 215.523 89.7986 216.37 89.716C217.218 89.654 218.024 89.5093 218.788 89.282C219.574 89.0753 220.245 88.7653 220.803 88.352C221.361 87.9386 221.64 87.4013 221.64 86.74ZM214.293 73.689C213.694 73.689 213.043 73.6683 212.34 73.627C211.658 73.565 210.976 73.4513 210.294 73.286V77.657H218.261V73.255C217.579 73.4203 216.897 73.534 216.215 73.596C215.533 73.658 214.893 73.689 214.293 73.689ZM246.671 83.082C246.609 83.1853 246.526 83.2473 246.423 83.268C246.34 83.2886 246.216 83.237 246.051 83.113C245.555 82.741 245.028 82.3173 244.47 81.842C243.912 81.346 243.364 80.8293 242.827 80.292C242.289 79.734 241.762 79.1656 241.246 78.587C240.729 77.9876 240.254 77.3986 239.82 76.82C238.786 78.122 237.608 79.3723 236.286 80.571C234.963 81.749 233.454 82.927 231.76 84.105C231.656 84.167 231.553 84.2186 231.45 84.26C231.346 84.2806 231.264 84.2496 231.202 84.167L230.458 83.206C230.375 83.1026 230.344 82.9993 230.365 82.896C230.385 82.772 230.437 82.679 230.52 82.617C233.826 80.2816 236.399 77.9153 238.239 75.518C240.099 73.1206 241.39 70.62 242.114 68.016C242.196 67.7266 242.196 67.52 242.114 67.396C242.052 67.2513 241.876 67.179 241.587 67.179H232.194C231.946 67.179 231.822 67.0446 231.822 66.776V65.691C231.822 65.443 231.966 65.319 232.256 65.319H242.424C243.498 65.319 244.18 65.505 244.47 65.877C244.759 66.249 244.759 66.9103 244.47 67.861C243.664 70.5063 242.527 72.9346 241.06 75.146C241.535 75.8073 242.041 76.4583 242.579 77.099C243.116 77.7396 243.653 78.3493 244.191 78.928C244.728 79.486 245.265 80.0026 245.803 80.478C246.34 80.9326 246.846 81.315 247.322 81.625C247.425 81.7076 247.477 81.8006 247.477 81.904C247.477 82.0073 247.446 82.1003 247.384 82.183L246.671 83.082ZM252.747 91.142C252.747 91.4313 252.602 91.576 252.313 91.576H251.042C250.752 91.576 250.608 91.4313 250.608 91.142V63.428C250.608 63.1386 250.752 62.994 251.042 62.994H252.313C252.602 62.994 252.747 63.1386 252.747 63.428V74.712H257.025C257.149 74.712 257.252 74.7533 257.335 74.836C257.438 74.898 257.49 74.991 257.49 75.115V76.169C257.49 76.2723 257.438 76.3653 257.335 76.448C257.252 76.5306 257.149 76.572 257.025 76.572H252.747V91.142ZM271.585 67.21C271.585 66.342 271.751 65.7633 272.081 65.474C272.412 65.164 273.032 65.009 273.941 65.009H288.48C288.976 65.009 289.369 65.04 289.658 65.102C289.968 65.164 290.206 65.2776 290.371 65.443C290.557 65.6083 290.681 65.8356 290.743 66.125C290.805 66.4143 290.836 66.776 290.836 67.21V75.859C290.836 76.727 290.671 77.316 290.34 77.626C290.01 77.9153 289.39 78.06 288.48 78.06H282.28V84.818H294.463C294.567 84.818 294.67 84.8593 294.773 84.942C294.877 85.004 294.928 85.097 294.928 85.221V86.275C294.928 86.3783 294.877 86.4713 294.773 86.554C294.67 86.6366 294.567 86.678 294.463 86.678H268.113C267.989 86.678 267.876 86.6366 267.772 86.554C267.69 86.4713 267.648 86.3783 267.648 86.275V85.221C267.648 85.097 267.69 85.004 267.772 84.942C267.876 84.8593 267.989 84.818 268.113 84.818H280.141V78.06H273.941C273.445 78.06 273.042 78.029 272.732 77.967C272.443 77.905 272.205 77.7913 272.019 77.626C271.854 77.44 271.74 77.2126 271.678 76.944C271.616 76.6546 271.585 76.293 271.585 75.859V67.21ZM274.468 66.869C274.179 66.869 273.983 66.931 273.879 67.055C273.776 67.1583 273.724 67.365 273.724 67.675V75.394C273.724 75.704 273.776 75.921 273.879 76.045C273.983 76.1483 274.179 76.2 274.468 76.2H287.953C288.243 76.2 288.439 76.1483 288.542 76.045C288.646 75.921 288.697 75.704 288.697 75.394V67.675C288.697 67.365 288.646 67.1583 288.542 67.055C288.439 66.931 288.243 66.869 287.953 66.869H274.468ZM320.827 78.897C320.827 79.1863 320.682 79.331 320.393 79.331H319.122C318.832 79.331 318.688 79.1863 318.688 78.897V63.428C318.688 63.1386 318.832 62.994 319.122 62.994H320.393C320.682 62.994 320.827 63.1386 320.827 63.428V78.897ZM303.126 83.268C303.126 82.4 303.291 81.8213 303.622 81.532C303.952 81.222 304.572 81.067 305.482 81.067H318.471C318.967 81.067 319.359 81.098 319.649 81.16C319.959 81.222 320.196 81.3356 320.362 81.501C320.548 81.6663 320.672 81.8936 320.734 82.183C320.796 82.4723 320.827 82.834 320.827 83.268V89.127C320.827 89.995 320.661 90.5736 320.331 90.863C320 91.173 319.38 91.328 318.471 91.328H305.482C304.986 91.328 304.583 91.297 304.273 91.235C303.983 91.173 303.746 91.049 303.56 90.863C303.394 90.6976 303.281 90.4703 303.219 90.181C303.157 89.9123 303.126 89.561 303.126 89.127V83.268ZM306.009 82.927C305.719 82.927 305.523 82.989 305.42 83.113C305.316 83.2163 305.265 83.423 305.265 83.733V88.662C305.265 88.972 305.316 89.1786 305.42 89.282C305.523 89.406 305.719 89.468 306.009 89.468H317.944C318.233 89.468 318.429 89.406 318.533 89.282C318.636 89.1786 318.688 88.972 318.688 88.662V83.733C318.688 83.423 318.636 83.2163 318.533 83.113C318.429 82.989 318.233 82.927 317.944 82.927H306.009ZM313.232 71.116C313.232 72.1493 313.046 73.1 312.674 73.968C312.302 74.8153 311.785 75.549 311.124 76.169C310.462 76.789 309.677 77.2746 308.768 77.626C307.879 77.9773 306.908 78.153 305.854 78.153C304.841 78.153 303.89 77.9876 303.002 77.657C302.113 77.3056 301.338 76.82 300.677 76.2C300.036 75.58 299.53 74.836 299.158 73.968C298.786 73.1 298.6 72.1493 298.6 71.116C298.6 70.0206 298.786 69.039 299.158 68.171C299.53 67.2823 300.036 66.5383 300.677 65.939C301.338 65.319 302.113 64.854 303.002 64.544C303.89 64.2133 304.841 64.048 305.854 64.048C306.804 64.048 307.724 64.2133 308.613 64.544C309.501 64.854 310.287 65.3086 310.969 65.908C311.651 66.5073 312.198 67.2513 312.612 68.14C313.025 69.008 313.232 70 313.232 71.116ZM311.062 71.085C311.062 70.2583 310.917 69.535 310.628 68.915C310.359 68.2743 309.987 67.7473 309.512 67.334C309.036 66.9 308.478 66.5796 307.838 66.373C307.218 66.1456 306.556 66.032 305.854 66.032C305.13 66.032 304.459 66.1456 303.839 66.373C303.239 66.5796 302.702 66.9 302.227 67.334C301.772 67.7473 301.41 68.2743 301.142 68.915C300.894 69.535 300.77 70.2583 300.77 71.085C300.77 71.8703 300.894 72.573 301.142 73.193C301.39 73.813 301.741 74.3503 302.196 74.805C302.65 75.2596 303.188 75.611 303.808 75.859C304.428 76.0863 305.11 76.2 305.854 76.2C306.556 76.2 307.218 76.0863 307.838 75.859C308.478 75.611 309.036 75.2596 309.512 74.805C309.987 74.3503 310.359 73.813 310.628 73.193C310.917 72.573 311.062 71.8703 311.062 71.085Z" fill="white"/>
</svg>
