<svg width="964" height="121" viewBox="0 0 207 28"
     fill="none" xmlns="http://www.w3.org/2000/svg">
  <path d="M14.9256 6.10909L13.3984 7.63637C15.8975 10.1355 15.8975 14.162 13.3984 16.6149C10.8992 19.1141 6.87275 19.1141 4.41985 16.6149C1.92068 14.1157 1.92068 10.0893 4.41985 7.63637L8.37688 3.67934L8.93225 3.12397V0.13884L2.962 6.10909C-0.370228 9.44132 -0.370228 14.8099 2.962 18.1422C6.29423 21.4744 11.6628 21.4744 14.9256 18.1422C18.2579 14.7868 18.2579 9.44132 14.9256 6.10909Z" fill="#EE4C2C" />
  <path d="M11.9405 5.73884C12.554 5.73884 13.0513 5.24155 13.0513 4.62809C13.0513 4.01464 12.554 3.51735 11.9405 3.51735C11.3271 3.51735 10.8298 4.01464 10.8298 4.62809C10.8298 5.24155 11.3271 5.73884 11.9405 5.73884Z" fill="#EE4C2C" />
  <path d="M30.5917 13.9769H28.0231V20.5719H26.0793V1.80496C26.0793 1.80496 30.5223 1.80496 30.8 1.80496C35.7289 1.80496 38.0893 4.23472 38.0893 7.63637C38.1587 11.8248 35.243 13.9769 30.5917 13.9769ZM30.8 3.67934C30.5917 3.67934 28.0926 3.67934 28.0926 3.67934V12.3107L30.7306 12.2413C34.2711 12.1719 36.2149 10.7835 36.2149 7.86777C36.2149 5.1372 34.2711 3.67934 30.8 3.67934Z" fill="white" />
  <path d="M46.7901 20.5025L45.6793 23.4876C44.4297 26.8198 43.1107 27.7917 41.2363 27.7917C40.195 27.7917 39.4314 27.514 38.5983 27.1669L39.1537 25.4314C39.7785 25.7785 40.4727 26.0562 41.2363 26.0562C42.2777 26.0562 43.0413 25.5008 44.0826 22.8628L44.9851 20.4331L39.6396 6.87273H41.6529L45.957 18.2116L50.1917 6.87273H52.1355L46.7901 20.5025Z" fill="white" />
  <path d="M58.476 3.67934V20.6413H56.5322V3.67934H49.9372V1.87437H65.0248V3.67934C65.0017 3.67934 58.476 3.67934 58.476 3.67934Z" fill="white" />
  <path d="M70.5091 20.9884C66.6909 20.9884 63.9141 18.1421 63.9141 13.7686C63.9141 9.39504 66.8298 6.47934 70.7174 6.47934C74.605 6.47934 77.3124 9.32562 77.3124 13.6992C77.243 18.0727 74.3273 20.9884 70.5091 20.9884ZM70.5785 8.21488C67.6628 8.21488 65.7884 10.5058 65.7884 13.7686C65.7884 17.1008 67.7322 19.3917 70.6479 19.3917C73.5636 19.3917 75.438 17.1008 75.438 13.838C75.438 10.4364 73.4942 8.21488 70.5785 8.21488Z" fill="white" />
  <path d="M81.9636 20.6413H80.0892V6.87272L81.9636 6.45619V9.37189C82.8661 7.63636 84.1851 6.45619 85.9901 6.45619C86.8925 6.45619 87.7256 6.73388 88.4198 7.08099L87.9339 8.81652C87.3091 8.46941 86.6149 8.19173 85.8512 8.19173C84.3934 8.19173 83.0744 9.30247 81.9636 11.7322V20.6413Z" fill="white" />
  <path d="M95.7322 20.9884C91.5669 20.9884 88.9984 18.0033 88.9984 13.7686C88.9984 9.46446 91.8446 6.47934 95.7322 6.47934C97.3984 6.47934 98.8562 6.89587 100.036 7.6595L99.5504 9.32562C98.5091 8.63141 97.1901 8.21488 95.7322 8.21488C92.7471 8.21488 90.9422 10.4364 90.9422 13.6992C90.9422 17.0314 92.886 19.2529 95.8017 19.2529C97.1901 19.2529 98.5785 18.8364 99.6198 18.1421L100.036 19.8777C98.7868 20.5719 97.3289 20.9884 95.7322 20.9884Z" fill="white" />
  <path d="M111.514 20.6413V11.7322C111.514 9.30248 110.542 8.26116 108.598 8.26116C107.002 8.26116 105.474 9.09421 104.364 10.205V20.6413H102.489V0.416527L104.364 0C104.364 0 104.364 8.6314 104.364 8.70083C105.821 7.24297 107.626 6.54876 109.154 6.54876C111.792 6.54876 113.458 8.2843 113.458 11.2694V20.6645H111.514V20.6413Z" fill="white" />
  <path d="M127.908 12.201H123.046V10.188H127.908V12.201ZM128.799 9.462H122.166V12.927H128.799V9.462ZM123.046 15.831H122.144V18.647H128.964V17.91H123.046V15.831ZM121 14.049V14.775H125.103V16.766H126.005V14.775H129.965V14.049H121Z" fill="white" />
  <path d="M134.595 9.847H133.693V11.618C133.693 13.444 132.571 15.347 131.141 16.062L131.691 16.777C132.802 16.183 133.715 14.94 134.144 13.477C134.595 14.863 135.497 16.04 136.619 16.601L137.147 15.886C135.717 15.204 134.595 13.411 134.595 11.618V9.847ZM138.368 9V12.344H136.08V13.081H138.368V18.878H139.27V9H138.368Z" fill="white" />
  <path d="M148.037 13.895H145.375V12.113H148.037V13.895ZM148.928 12.52H151.205V16.304H152.118V9H151.205V11.783H148.928V9.66H148.037V11.398H145.375V9.66H144.484V14.621H148.928V12.52ZM146.673 17.91V15.589H145.771V18.647H152.349V17.91H146.673Z" fill="white" />
  <path d="M155.637 16.095H161.324V18.878H162.237V15.358H155.637V16.095ZM159.223 12.663C159.289 12.432 159.333 12.19 159.333 11.915C159.333 11.651 159.289 11.409 159.223 11.178H161.324V12.663H159.223ZM156.792 13.532C155.835 13.532 155.12 12.861 155.12 11.915C155.12 10.991 155.835 10.32 156.792 10.32C157.76 10.32 158.475 10.991 158.475 11.915C158.475 12.861 157.76 13.532 156.792 13.532ZM161.324 9.011V10.452H158.838C158.376 9.891 157.65 9.55 156.792 9.55C155.34 9.55 154.262 10.529 154.262 11.915C154.262 13.312 155.34 14.302 156.792 14.302C157.65 14.302 158.365 13.961 158.827 13.4H161.324V14.819H162.237V9L161.324 9.011Z" fill="white" />
  <path d="M172.632 14.148H170.179V10.716H172.632V14.148ZM169.277 14.148H167.77V14.885H175.041V14.148H173.534V10.716H175.063V9.99H167.748V10.716H169.277V14.148ZM166.956 16.854V17.602H175.899V16.854H166.956Z" fill="white" />
  <path d="M181.992 16.909V15.05H185.149V14.324H179.077V12.729H184.918V9.726H178.164V10.463H184.038V12.003H178.186V15.05H181.079V16.909H177.064V17.646H186.029V16.909H181.992Z" fill="white" />
  <path d="M191.264 11.541V12.278H192.749V14.962H193.607V9.22H192.749V11.541H191.264ZM192.034 13.873C190.802 13.345 190.109 12.179 190.109 11.09V10.54H191.803V9.803H187.425V10.54H189.24V11.101C189.24 12.278 188.514 13.554 187.238 14.104L187.711 14.797C188.668 14.368 189.35 13.554 189.691 12.597C190.032 13.455 190.681 14.17 191.583 14.566L192.034 13.873ZM188.888 16.205H194.619V18.878H195.521V15.479H188.888V16.205ZM194.652 9.011V15.039H195.521V9.011H194.652Z" fill="white" />
  <path d="M205.233 14.324H199.37V12.762H204.914V12.047H199.37V10.584H205.134V9.858H198.457V15.05H205.233V14.324ZM197.302 16.854V17.591H206.256V16.854H197.302Z" fill="white" />
</svg>
